<?xml version="1.0" encoding="utf-8"?>
<!-- Generator: Adobe Illustrator 25.2.3, SVG Export Plug-In . SVG Version: 6.00 Build 0)  -->
<svg version="1.1" id="Layer_1" xmlns="http://www.w3.org/2000/svg" xmlns:xlink="http://www.w3.org/1999/xlink" x="0px" y="0px"
	 viewBox="0 0 190.67 157.1" style="enable-background:new 0 0 190.67 157.1;" xml:space="preserve">
<style type="text/css">
	.st0{display:none;fill:#414042;}
	.st1{fill:url(#SVGID_1_);}
	.st2{display:none;}
	.st3{display:inline;fill:url(#SVGID_2_);stroke:url(#SVGID_3_);stroke-width:3;stroke-miterlimit:10;}
	.st4{display:inline;fill:url(#SVGID_4_);stroke:url(#SVGID_5_);stroke-width:3;stroke-miterlimit:10;}
	.st5{display:inline;fill:url(#SVGID_6_);stroke:url(#SVGID_7_);stroke-width:3;stroke-miterlimit:10;}
	.st6{display:inline;fill:url(#SVGID_8_);stroke:url(#SVGID_9_);stroke-width:3;stroke-miterlimit:10;}
	.st7{display:inline;fill:url(#SVGID_10_);stroke:url(#SVGID_11_);stroke-width:3;stroke-miterlimit:10;}
	.st8{display:inline;fill:url(#SVGID_12_);stroke:url(#SVGID_13_);stroke-width:3;stroke-miterlimit:10;}
	.st9{display:inline;fill:url(#SVGID_14_);stroke:url(#SVGID_15_);stroke-width:3;stroke-miterlimit:10;}
	.st10{display:inline;fill:url(#SVGID_16_);stroke:url(#SVGID_17_);stroke-width:3;stroke-miterlimit:10;}
	.st11{display:inline;fill:url(#SVGID_18_);}
	.st12{display:inline;fill:url(#SVGID_19_);}
	.st13{display:none;fill:url(#SVGID_20_);}
</style>
<rect x="-555.95" y="-312.85" class="st0" width="1322.48" height="1018.31"/>
<linearGradient id="SVGID_1_" gradientUnits="userSpaceOnUse" x1="97.7932" y1="11.8395" x2="97.7932" y2="148.8428">
	<stop  offset="0.0806" style="stop-color:#E7D18F"/>
	<stop  offset="0.9247" style="stop-color:#E6D190"/>
</linearGradient>
<path class="st1" d="M157.08,59.82v6.6h20.45c-0.93,6.61-3.78,21.44-11.73,36.19c-8.69,16.12-20.65,27.36-35.73,33.65
	c12.29-10.88,20.21-27.81,20.21-46.81v-57l-4.21,2.36c-0.57,0.32-11.52,6.51-24.66,17.03c-9.77-19.56-20.47-35.54-21.29-36.76
	l-2.19-3.25l-2.35,3.1c-0.85,1.12-12.24,16.34-22.28,36.2C60.55,41.04,50.08,35.13,49.53,34.82l-4.21-2.36v57
	c0,18.99,7.92,35.92,20.21,46.8c-15.01-6.27-26.93-17.43-35.62-33.44c-8.02-14.78-10.9-29.75-11.84-36.41h20.46v-6.6H11.58
	l0.25,3.56c0.06,0.87,1.64,21.63,12.98,42.67c6.7,12.42,15.42,22.33,25.92,29.45c12.73,8.62,28.07,13.09,45.62,13.32
	c0.47,0.01,0.94,0.02,1.41,0.02c0,0,0.01,0,0.01,0c0,0,0,0,0,0c0,0,0,0,0,0v0c0,0,0,0,0,0c0,0,0.01,0,0.01,0s0.01,0,0.01,0
	c0,0,0,0,0,0v0c0,0,0,0,0,0c0,0,0,0,0,0c0,0,0.01,0,0.01,0c0.47,0,0.94-0.01,1.41-0.02c17.55-0.23,32.89-4.7,45.62-13.32
	c10.5-7.11,19.22-17.02,25.92-29.45c11.34-21.04,12.92-41.79,12.98-42.67l0.25-3.56H157.08z M97.68,22.47
	c3.75,5.86,11.68,18.7,18.96,33.32c-1.72,1.47-3.47,3-5.21,4.6c-5.09,4.66-9.64,9.33-13.63,14.01c-3.99-4.67-8.54-9.34-13.63-14.01
	c-2.04-1.86-4.07-3.64-6.07-5.32C85.48,40.37,93.74,28.06,97.68,22.47z M63.71,103.66c0-11.09,3.42-23.32,8.16-34.94l-4.8-4.06
	c-5.29,12.75-9.18,26.41-9.18,39.01c0,6.83,1.35,13.31,3.76,19.12c-6.55-9.09-10.49-20.69-10.49-33.32V43.28
	c8.41,5.28,27.73,18.41,42.66,36.02c-11.66,15.11-17.56,30.22-17.56,45.12c0,4.01,0.86,7.79,2.38,11.12
	C69.63,128.59,63.71,116.89,63.71,103.66z M97.79,142.24c-8.67-0.02-15.72-8-15.72-17.82c0-14.53,6.64-28.23,15.72-40.17
	c9.08,11.94,15.72,25.64,15.72,40.17C113.51,134.24,106.46,142.23,97.79,142.24z M116.96,135.54c1.52-3.34,2.38-7.12,2.38-11.12
	c0-14.9-5.9-30.01-17.56-45.12c14.93-17.61,34.26-30.74,42.66-36.02v46.18c0,12.62-3.94,24.22-10.49,33.32
	c2.41-5.81,3.76-12.29,3.76-19.12c0-11.36-4.43-25.35-10.26-38.85l-4.76,4.03c5.27,12.34,9.19,24.86,9.19,34.82
	C131.88,116.89,125.96,128.59,116.96,135.54z"/>
<g class="st2">
	<linearGradient id="SVGID_2_" gradientUnits="userSpaceOnUse" x1="-307.6261" y1="219.8262" x2="-307.6261" y2="112.6566">
		<stop  offset="0.0806" style="stop-color:#E7D18F"/>
		<stop  offset="0.9247" style="stop-color:#E6D190"/>
	</linearGradient>
	<linearGradient id="SVGID_3_" gradientUnits="userSpaceOnUse" x1="-307.6275" y1="221.3262" x2="-307.6275" y2="109.5591">
		<stop  offset="0.0806" style="stop-color:#E7D18F"/>
		<stop  offset="0.9247" style="stop-color:#E6D190"/>
	</linearGradient>
	<polygon class="st3" points="-249.07,219.83 -258.92,219.83 -307.55,131.22 -355.87,219.83 -366.19,219.83 -313.13,122.76 
		-313.13,122.68 -307.55,112.66 -302.2,122.39 	"/>
	<linearGradient id="SVGID_4_" gradientUnits="userSpaceOnUse" x1="-151.4972" y1="220.0497" x2="-151.4972" y2="112.7324">
		<stop  offset="0.0806" style="stop-color:#E7D18F"/>
		<stop  offset="0.9247" style="stop-color:#E6D190"/>
	</linearGradient>
	<linearGradient id="SVGID_5_" gradientUnits="userSpaceOnUse" x1="-151.4972" y1="221.5497" x2="-151.4972" y2="111.2324">
		<stop  offset="0.0806" style="stop-color:#E7D18F"/>
		<stop  offset="0.9247" style="stop-color:#E6D190"/>
	</linearGradient>
	<path class="st4" d="M-105.08,112.73v107.32h-8.14v-30.53h-76.55v30.53h-8.14V112.73h8.14v69h76.55v-69H-105.08z"/>
	<linearGradient id="SVGID_6_" gradientUnits="userSpaceOnUse" x1="-2.9445" y1="221.771" x2="-2.9445" y2="110.7863">
		<stop  offset="0.0806" style="stop-color:#E7D18F"/>
		<stop  offset="0.9247" style="stop-color:#E6D190"/>
	</linearGradient>
	<linearGradient id="SVGID_7_" gradientUnits="userSpaceOnUse" x1="-2.7202" y1="223.271" x2="-2.7202" y2="109.2863">
		<stop  offset="0.0806" style="stop-color:#E7D18F"/>
		<stop  offset="0.9247" style="stop-color:#E6D190"/>
	</linearGradient>
	<path class="st5" d="M53.37,181.51c-3.36,11.58-10.14,21.16-20.32,28.74c-10.29,7.68-21.98,11.53-35.06,11.53
		c-15.87,0-29.45-5.41-40.72-16.24c-11.22-10.88-16.83-23.97-16.83-39.29c0-15.27,5.61-28.34,16.83-39.22
		c11.27-10.83,24.85-16.24,40.72-16.24c13.29,0,25.13,3.97,35.52,11.9c10.29,7.73,17.01,17.56,20.17,29.49h-8.69
		c-3.05-9.68-8.84-17.66-17.37-23.95c-8.74-6.33-18.61-9.5-29.63-9.5c-13.65,0-25.28,4.64-34.9,13.92
		c-9.62,9.28-14.43,20.48-14.43,33.6c0,13.17,4.81,24.4,14.43,33.68s21.25,13.92,34.9,13.92c10.76,0,20.45-3.07,29.09-9.2
		c8.48-5.99,14.35-13.7,17.6-23.13H53.37z"/>
	<linearGradient id="SVGID_8_" gradientUnits="userSpaceOnUse" x1="117.0541" y1="220.0497" x2="117.0541" y2="112.7324">
		<stop  offset="0.0806" style="stop-color:#E7D18F"/>
		<stop  offset="0.9247" style="stop-color:#E6D190"/>
	</linearGradient>
	<linearGradient id="SVGID_9_" gradientUnits="userSpaceOnUse" x1="117.0541" y1="221.5497" x2="117.0541" y2="111.2324">
		<stop  offset="0.0806" style="stop-color:#E7D18F"/>
		<stop  offset="0.9247" style="stop-color:#E6D190"/>
	</linearGradient>
	<path class="st6" d="M163.48,112.73v107.32h-8.14v-30.53H78.78v30.53h-8.14V112.73h8.14v69h76.55v-69H163.48z"/>
	<linearGradient id="SVGID_10_" gradientUnits="userSpaceOnUse" x1="223.1493" y1="220.0497" x2="223.1493" y2="112.6566">
		<stop  offset="0.0806" style="stop-color:#E7D18F"/>
		<stop  offset="0.9247" style="stop-color:#E6D190"/>
	</linearGradient>
	<linearGradient id="SVGID_11_" gradientUnits="userSpaceOnUse" x1="223.1493" y1="221.5497" x2="223.1493" y2="111.1566">
		<stop  offset="0.0806" style="stop-color:#E7D18F"/>
		<stop  offset="0.9247" style="stop-color:#E6D190"/>
	</linearGradient>
	<path class="st7" d="M265.65,120.66H189.1v91.45h76.55v7.93h-85.01V112.66h85.01V120.66z M265.34,189.52H201.9v-7.86h63.45V189.52z
		"/>
	<linearGradient id="SVGID_12_" gradientUnits="userSpaceOnUse" x1="453.2421" y1="220.0497" x2="453.2421" y2="112.6566">
		<stop  offset="0.0806" style="stop-color:#E7D18F"/>
		<stop  offset="0.9247" style="stop-color:#E6D190"/>
	</linearGradient>
	<linearGradient id="SVGID_13_" gradientUnits="userSpaceOnUse" x1="453.2421" y1="221.5497" x2="453.2421" y2="111.1566">
		<stop  offset="0.0806" style="stop-color:#E7D18F"/>
		<stop  offset="0.9247" style="stop-color:#E6D190"/>
	</linearGradient>
	<path class="st8" d="M495.75,120.66h-76.55v91.45h76.55v7.93h-85.01V112.66h85.01V120.66z M495.44,189.52h-63.45v-7.86h63.45
		V189.52z"/>
	<linearGradient id="SVGID_14_" gradientUnits="userSpaceOnUse" x1="338.1599" y1="220.2013" x2="338.1599" y2="112.6566">
		<stop  offset="0.0806" style="stop-color:#E7D18F"/>
		<stop  offset="0.9247" style="stop-color:#E6D190"/>
	</linearGradient>
	<linearGradient id="SVGID_15_" gradientUnits="userSpaceOnUse" x1="338.1605" y1="223.3165" x2="338.1605" y2="111.1566">
		<stop  offset="0.0806" style="stop-color:#E7D18F"/>
		<stop  offset="0.9247" style="stop-color:#E6D190"/>
	</linearGradient>
	<path class="st9" d="M279.6,112.66h9.85l48.63,88.83l48.32-88.83h10.32l-53.05,97.44v0.07l-5.58,10.03l-5.27-9.73L279.6,112.66z"/>
	<linearGradient id="SVGID_16_" gradientUnits="userSpaceOnUse" x1="555.112" y1="220.0497" x2="555.112" y2="112.8069">
		<stop  offset="0.0806" style="stop-color:#E7D18F"/>
		<stop  offset="0.9247" style="stop-color:#E6D190"/>
	</linearGradient>
	<linearGradient id="SVGID_17_" gradientUnits="userSpaceOnUse" x1="555.112" y1="221.5497" x2="555.112" y2="111.3069">
		<stop  offset="0.0806" style="stop-color:#E7D18F"/>
		<stop  offset="0.9247" style="stop-color:#E6D190"/>
	</linearGradient>
	<path class="st10" d="M597.42,212.19v7.86H512.8V112.81h8.14v99.39H597.42z"/>
	<linearGradient id="SVGID_18_" gradientUnits="userSpaceOnUse" x1="-225.9473" y1="219.8262" x2="-225.9473" y2="200.6716">
		<stop  offset="0.0806" style="stop-color:#E7D18F"/>
		<stop  offset="0.9247" style="stop-color:#E6D190"/>
	</linearGradient>
	<ellipse class="st11" cx="-225.95" cy="210.25" rx="9.41" ry="9.58"/>
	<linearGradient id="SVGID_19_" gradientUnits="userSpaceOnUse" x1="-78.5664" y1="219.8262" x2="-78.5664" y2="200.6716">
		<stop  offset="0.0806" style="stop-color:#E7D18F"/>
		<stop  offset="0.9247" style="stop-color:#E6D190"/>
	</linearGradient>
	<ellipse class="st12" cx="-78.57" cy="210.25" rx="9.41" ry="9.58"/>
</g>
<linearGradient id="SVGID_20_" gradientUnits="userSpaceOnUse" x1="-532.9323" y1="-395.4179" x2="-427.4441" y2="-395.4179">
	<stop  offset="0.0806" style="stop-color:#E7D18F"/>
	<stop  offset="0.9247" style="stop-color:#E6D190"/>
</linearGradient>
<rect x="-532.93" y="-447.32" class="st13" width="105.49" height="103.81"/>
<rect x="-412.37" y="-447.32" class="st0" width="105.49" height="103.81"/>
</svg>
