<?xml version="1.0" encoding="utf-8"?>
<!-- Generator: Adobe Illustrator 25.2.3, SVG Export Plug-In . SVG Version: 6.00 Build 0)  -->
<svg version="1.1" id="Layer_1" xmlns="http://www.w3.org/2000/svg" xmlns:xlink="http://www.w3.org/1999/xlink" x="0px" y="0px"
	 viewBox="0 0 996.87 277.43" style="enable-background:new 0 0 996.87 277.43;" xml:space="preserve">
<style type="text/css">
	.st0{display:none;fill:#414042;}
	.st1{fill:url(#SVGID_1_);}
	.st2{fill:url(#SVGID_2_);stroke:url(#SVGID_3_);stroke-width:3;stroke-miterlimit:10;}
	.st3{fill:url(#SVGID_4_);stroke:url(#SVGID_5_);stroke-width:3;stroke-miterlimit:10;}
	.st4{fill:url(#SVGID_6_);stroke:url(#SVGID_7_);stroke-width:3;stroke-miterlimit:10;}
	.st5{fill:url(#SVGID_8_);stroke:url(#SVGID_9_);stroke-width:3;stroke-miterlimit:10;}
	.st6{fill:url(#SVGID_10_);stroke:url(#SVGID_11_);stroke-width:3;stroke-miterlimit:10;}
	.st7{fill:url(#SVGID_12_);stroke:url(#SVGID_13_);stroke-width:3;stroke-miterlimit:10;}
	.st8{fill:url(#SVGID_14_);stroke:url(#SVGID_15_);stroke-width:3;stroke-miterlimit:10;}
	.st9{fill:url(#SVGID_16_);stroke:url(#SVGID_17_);stroke-width:3;stroke-miterlimit:10;}
	.st10{fill:url(#SVGID_18_);}
	.st11{fill:url(#SVGID_19_);}
	.st12{display:none;fill:url(#SVGID_20_);}
</style>
<rect x="-165.74" y="-264.72" class="st0" width="1322.48" height="1018.31"/>
<g>
	<linearGradient id="SVGID_1_" gradientUnits="userSpaceOnUse" x1="386.7452" y1="7.5112" x2="386.7452" y2="144.5145">
		<stop  offset="0.0806" style="stop-color:#E7D18F"/>
		<stop  offset="0.9247" style="stop-color:#E6D190"/>
	</linearGradient>
	<path class="st1" d="M446.03,55.49v6.6h20.45c-0.93,6.61-3.78,21.44-11.73,36.19c-8.69,16.12-20.65,27.36-35.73,33.65
		c12.29-10.88,20.21-27.81,20.21-46.81v-57l-4.21,2.36c-0.57,0.32-11.52,6.51-24.66,17.03c-9.77-19.56-20.47-35.54-21.29-36.76
		l-2.19-3.25l-2.35,3.1c-0.85,1.12-12.24,16.34-22.28,36.2c-12.74-10.09-23.21-16.01-23.77-16.32l-4.21-2.36v57
		c0,18.99,7.92,35.92,20.21,46.8c-15.01-6.27-26.93-17.43-35.62-33.44c-8.02-14.78-10.9-29.75-11.84-36.41h20.46v-6.6h-26.94
		l0.25,3.56c0.06,0.87,1.64,21.63,12.98,42.67c6.7,12.42,15.42,22.33,25.92,29.45c12.73,8.62,28.07,13.09,45.62,13.32
		c0.47,0.01,0.94,0.02,1.41,0.02c0,0,0.01,0,0.01,0c0,0,0,0,0,0c0,0,0,0,0,0v0c0,0,0,0,0,0c0,0,0.01,0,0.01,0s0.01,0,0.01,0
		c0,0,0,0,0,0v0c0,0,0,0,0,0c0,0,0,0,0,0c0,0,0.01,0,0.01,0c0.47,0,0.94-0.01,1.41-0.02c17.55-0.23,32.89-4.7,45.62-13.32
		c10.5-7.11,19.22-17.02,25.92-29.45c11.34-21.04,12.92-41.79,12.98-42.67l0.25-3.56H446.03z M386.63,18.14
		c3.75,5.86,11.68,18.7,18.96,33.32c-1.72,1.47-3.47,3-5.21,4.6c-5.09,4.66-9.64,9.33-13.63,14.01c-3.99-4.67-8.54-9.34-13.63-14.01
		c-2.04-1.86-4.07-3.64-6.07-5.32C374.43,36.04,382.69,23.73,386.63,18.14z M352.66,99.33c0-11.09,3.42-23.32,8.16-34.94l-4.8-4.06
		c-5.29,12.75-9.18,26.41-9.18,39.01c0,6.83,1.35,13.31,3.76,19.12c-6.55-9.09-10.49-20.69-10.49-33.32V38.95
		c8.41,5.28,27.73,18.41,42.66,36.02c-11.66,15.11-17.56,30.22-17.56,45.12c0,4.01,0.86,7.79,2.38,11.12
		C358.58,124.26,352.66,112.57,352.66,99.33z M386.75,137.92c-8.67-0.02-15.72-8-15.72-17.82c0-14.53,6.64-28.23,15.72-40.17
		c9.08,11.94,15.72,25.64,15.72,40.17C402.46,129.91,395.42,137.9,386.75,137.92z M405.92,131.22c1.52-3.34,2.38-7.12,2.38-11.12
		c0-14.9-5.9-30.01-17.56-45.12c14.93-17.61,34.26-30.74,42.66-36.02v46.18c0,12.62-3.94,24.22-10.49,33.32
		c2.41-5.81,3.76-12.29,3.76-19.12c0-11.36-4.43-25.35-10.26-38.85l-4.76,4.03c5.27,12.34,9.19,24.86,9.19,34.82
		C420.83,112.57,414.91,124.26,405.92,131.22z"/>
	<linearGradient id="SVGID_2_" gradientUnits="userSpaceOnUse" x1="82.5831" y1="267.9577" x2="82.5831" y2="160.7881">
		<stop  offset="0.0806" style="stop-color:#E7D18F"/>
		<stop  offset="0.9247" style="stop-color:#E6D190"/>
	</linearGradient>
	<linearGradient id="SVGID_3_" gradientUnits="userSpaceOnUse" x1="82.5816" y1="269.4577" x2="82.5816" y2="157.6906">
		<stop  offset="0.0806" style="stop-color:#E7D18F"/>
		<stop  offset="0.9247" style="stop-color:#E6D190"/>
	</linearGradient>
	<polygon class="st2" points="141.14,267.96 131.29,267.96 82.66,179.35 34.34,267.96 24.02,267.96 77.08,170.89 77.08,170.82 
		82.66,160.79 88.01,170.52 	"/>
	<linearGradient id="SVGID_4_" gradientUnits="userSpaceOnUse" x1="238.712" y1="268.1812" x2="238.712" y2="160.864">
		<stop  offset="0.0806" style="stop-color:#E7D18F"/>
		<stop  offset="0.9247" style="stop-color:#E6D190"/>
	</linearGradient>
	<linearGradient id="SVGID_5_" gradientUnits="userSpaceOnUse" x1="238.712" y1="269.6812" x2="238.712" y2="159.364">
		<stop  offset="0.0806" style="stop-color:#E7D18F"/>
		<stop  offset="0.9247" style="stop-color:#E6D190"/>
	</linearGradient>
	<path class="st3" d="M285.13,160.86v107.32h-8.14v-30.53h-76.55v30.53h-8.14V160.86h8.14v69h76.55v-69H285.13z"/>
	<linearGradient id="SVGID_6_" gradientUnits="userSpaceOnUse" x1="387.2646" y1="269.9026" x2="387.2646" y2="158.9178">
		<stop  offset="0.0806" style="stop-color:#E7D18F"/>
		<stop  offset="0.9247" style="stop-color:#E6D190"/>
	</linearGradient>
	<linearGradient id="SVGID_7_" gradientUnits="userSpaceOnUse" x1="387.489" y1="271.4026" x2="387.489" y2="157.4178">
		<stop  offset="0.0806" style="stop-color:#E7D18F"/>
		<stop  offset="0.9247" style="stop-color:#E6D190"/>
	</linearGradient>
	<path class="st4" d="M443.58,229.64c-3.36,11.58-10.14,21.16-20.32,28.74c-10.29,7.68-21.98,11.53-35.06,11.53
		c-15.87,0-29.45-5.41-40.72-16.24c-11.22-10.88-16.83-23.97-16.83-39.29c0-15.27,5.61-28.34,16.83-39.22
		c11.27-10.83,24.85-16.24,40.72-16.24c13.29,0,25.13,3.97,35.52,11.9c10.29,7.73,17.01,17.56,20.17,29.49h-8.69
		c-3.05-9.68-8.84-17.66-17.37-23.95c-8.74-6.33-18.61-9.5-29.63-9.5c-13.65,0-25.28,4.64-34.9,13.92s-14.43,20.48-14.43,33.6
		c0,13.17,4.81,24.4,14.43,33.68c9.62,9.28,21.25,13.92,34.9,13.92c10.76,0,20.45-3.07,29.09-9.2c8.48-5.99,14.35-13.7,17.6-23.13
		H443.58z"/>
	<linearGradient id="SVGID_8_" gradientUnits="userSpaceOnUse" x1="507.2633" y1="268.1812" x2="507.2633" y2="160.864">
		<stop  offset="0.0806" style="stop-color:#E7D18F"/>
		<stop  offset="0.9247" style="stop-color:#E6D190"/>
	</linearGradient>
	<linearGradient id="SVGID_9_" gradientUnits="userSpaceOnUse" x1="507.2633" y1="269.6812" x2="507.2633" y2="159.364">
		<stop  offset="0.0806" style="stop-color:#E7D18F"/>
		<stop  offset="0.9247" style="stop-color:#E6D190"/>
	</linearGradient>
	<path class="st5" d="M553.68,160.86v107.32h-8.14v-30.53h-76.55v30.53h-8.14V160.86h8.14v69h76.55v-69H553.68z"/>
	<linearGradient id="SVGID_10_" gradientUnits="userSpaceOnUse" x1="613.3585" y1="268.1812" x2="613.3585" y2="160.7881">
		<stop  offset="0.0806" style="stop-color:#E7D18F"/>
		<stop  offset="0.9247" style="stop-color:#E6D190"/>
	</linearGradient>
	<linearGradient id="SVGID_11_" gradientUnits="userSpaceOnUse" x1="613.3585" y1="269.6812" x2="613.3585" y2="159.2881">
		<stop  offset="0.0806" style="stop-color:#E7D18F"/>
		<stop  offset="0.9247" style="stop-color:#E6D190"/>
	</linearGradient>
	<path class="st6" d="M655.86,168.8h-76.55v91.45h76.55v7.93h-85.01V160.79h85.01V168.8z M655.55,237.65h-63.45v-7.86h63.45V237.65z
		"/>
	<linearGradient id="SVGID_12_" gradientUnits="userSpaceOnUse" x1="843.4512" y1="268.1812" x2="843.4512" y2="160.7881">
		<stop  offset="0.0806" style="stop-color:#E7D18F"/>
		<stop  offset="0.9247" style="stop-color:#E6D190"/>
	</linearGradient>
	<linearGradient id="SVGID_13_" gradientUnits="userSpaceOnUse" x1="843.4512" y1="269.6812" x2="843.4512" y2="159.2881">
		<stop  offset="0.0806" style="stop-color:#E7D18F"/>
		<stop  offset="0.9247" style="stop-color:#E6D190"/>
	</linearGradient>
	<path class="st7" d="M885.96,168.8H809.4v91.45h76.55v7.93h-85.01V160.79h85.01V168.8z M885.65,237.65H822.2v-7.86h63.45V237.65z"
		/>
	<linearGradient id="SVGID_14_" gradientUnits="userSpaceOnUse" x1="728.3691" y1="268.3329" x2="728.3691" y2="160.7881">
		<stop  offset="0.0806" style="stop-color:#E7D18F"/>
		<stop  offset="0.9247" style="stop-color:#E6D190"/>
	</linearGradient>
	<linearGradient id="SVGID_15_" gradientUnits="userSpaceOnUse" x1="728.3696" y1="271.448" x2="728.3696" y2="159.2881">
		<stop  offset="0.0806" style="stop-color:#E7D18F"/>
		<stop  offset="0.9247" style="stop-color:#E6D190"/>
	</linearGradient>
	<path class="st8" d="M669.81,160.79h9.85l48.63,88.83l48.32-88.83h10.32l-53.05,97.44v0.07l-5.58,10.03l-5.27-9.73L669.81,160.79z"
		/>
	<linearGradient id="SVGID_16_" gradientUnits="userSpaceOnUse" x1="945.3212" y1="268.1812" x2="945.3212" y2="160.9385">
		<stop  offset="0.0806" style="stop-color:#E7D18F"/>
		<stop  offset="0.9247" style="stop-color:#E6D190"/>
	</linearGradient>
	<linearGradient id="SVGID_17_" gradientUnits="userSpaceOnUse" x1="945.3212" y1="269.6812" x2="945.3212" y2="159.4385">
		<stop  offset="0.0806" style="stop-color:#E7D18F"/>
		<stop  offset="0.9247" style="stop-color:#E6D190"/>
	</linearGradient>
	<path class="st9" d="M987.63,260.32v7.86h-84.62V160.94h8.14v99.39H987.63z"/>
	<linearGradient id="SVGID_18_" gradientUnits="userSpaceOnUse" x1="164.2619" y1="267.9577" x2="164.2619" y2="248.8031">
		<stop  offset="0.0806" style="stop-color:#E7D18F"/>
		<stop  offset="0.9247" style="stop-color:#E6D190"/>
	</linearGradient>
	<ellipse class="st10" cx="164.26" cy="258.38" rx="9.41" ry="9.58"/>
	<linearGradient id="SVGID_19_" gradientUnits="userSpaceOnUse" x1="311.6427" y1="267.9577" x2="311.6427" y2="248.8031">
		<stop  offset="0.0806" style="stop-color:#E7D18F"/>
		<stop  offset="0.9247" style="stop-color:#E6D190"/>
	</linearGradient>
	<ellipse class="st11" cx="311.64" cy="258.38" rx="9.41" ry="9.58"/>
</g>
<linearGradient id="SVGID_20_" gradientUnits="userSpaceOnUse" x1="-142.7231" y1="-347.2864" x2="-37.235" y2="-347.2864">
	<stop  offset="0.0806" style="stop-color:#E7D18F"/>
	<stop  offset="0.9247" style="stop-color:#E6D190"/>
</linearGradient>
<rect x="-142.72" y="-399.19" class="st12" width="105.49" height="103.81"/>
<rect x="-22.17" y="-399.19" class="st0" width="105.49" height="103.81"/>
</svg>
